<?xml version="1.0" encoding="UTF-8" standalone="no"?>
<!-- Generator: Adobe Illustrator 23.0.2, SVG Export Plug-In . SVG Version: 6.00 Build 0)  -->

<svg
   version="1.1"
   id="TGA_x5F_logo2019"
   x="0px"
   y="0px"
   viewBox="0 0 2048 1024"
   xml:space="preserve"
   sodipodi:docname="tge-logo.svg"
   inkscape:version="1.2.1 (9c6d41e410, 2022-07-14)"
   width="2048"
   height="1024"
   xmlns:inkscape="http://www.inkscape.org/namespaces/inkscape"
   xmlns:sodipodi="http://sodipodi.sourceforge.net/DTD/sodipodi-0.dtd"
   xmlns="http://www.w3.org/2000/svg"
   xmlns:svg="http://www.w3.org/2000/svg"
   xmlns:rdf="http://www.w3.org/1999/02/22-rdf-syntax-ns#"
   xmlns:cc="http://creativecommons.org/ns#"
   xmlns:dc="http://purl.org/dc/elements/1.1/"><metadata
   id="metadata4634"><rdf:RDF><cc:Work
       rdf:about=""><dc:format>image/svg+xml</dc:format><dc:type
         rdf:resource="http://purl.org/dc/dcmitype/StillImage" /></cc:Work></rdf:RDF></metadata><defs
   id="defs4632">
		
		
		
		
		
		
		
		
		
		
		
		
		
		
		
	</defs><sodipodi:namedview
   pagecolor="#ffffff"
   bordercolor="#666666"
   borderopacity="1"
   objecttolerance="10"
   gridtolerance="10"
   guidetolerance="10"
   inkscape:pageopacity="0"
   inkscape:pageshadow="2"
   inkscape:window-width="1920"
   inkscape:window-height="1017"
   id="namedview4630"
   showgrid="false"
   showguides="true"
   inkscape:guide-bbox="true"
   inkscape:zoom="0.44830478"
   inkscape:cx="1006.012"
   inkscape:cy="461.73944"
   inkscape:window-x="-8"
   inkscape:window-y="-8"
   inkscape:window-maximized="1"
   inkscape:current-layer="TGA_x5F_2019"
   inkscape:showpageshadow="2"
   inkscape:pagecheckerboard="0"
   inkscape:deskcolor="#d1d1d1" />
<style
   type="text/css"
   id="style4577">
	.st0{fill:#FFFFFF;}
</style>
<g
   id="TGA_x5F_2019"
   style="fill:#000000;fill-opacity:1">
	
	
	<g
   id="g7504"
   transform="matrix(4.9404844,0,0,4.9404844,-97.327543,101.44594)"><path
     inkscape:connector-curvature="0"
     style="fill:#000000;fill-opacity:1"
     id="path4579"
     d="m 211.6,136.3 v 13.8 h -2 v -13.8 h -3 v -1.7 h 7.9 v 1.7 z"
     class="st0" /><path
     inkscape:connector-curvature="0"
     style="fill:#000000;fill-opacity:1"
     id="path4581"
     d="M 230.1,150.1 V 143 h -5.4 v 7.2 h -2 v -15.6 h 2 v 6.7 h 5.4 v -6.7 h 2 v 15.6 z"
     class="st0" /><path
     inkscape:connector-curvature="0"
     style="fill:#000000;fill-opacity:1"
     id="path4583"
     d="m 241.9,150.1 v -15.6 h 6.6 v 1.7 h -4.6 v 4.9 h 4.3 v 1.6 h -4.3 v 5.4 h 4.8 v 1.7 h -6.8 z"
     class="st0" /><path
     style="fill:#000000;fill-opacity:1"
     id="path4585"
     d="m 394.78515,136 -1.2,1.4 c -0.6,-1 -1.5,-1.4 -2.5,-1.4 -2.3,0 -3.5,3 -3.5,6.3 0,3.6 1.2,6.3 3.7,6.3 0.9,0 1.5,-0.2 1.9,-0.5 v -4.8 h -2.1 v -1.7 h 4 v 7.5 c -0.9,0.7 -2.1,1.2 -3.8,1.2 -3.6,0 -5.7,-3.2 -5.7,-8.2 0,-4.7 2.1,-8.2 5.6,-8.2 1.5,0.3 2.7,0.9 3.6,2.1 z"
     class="st0"
     inkscape:connector-curvature="0" /><path
     inkscape:connector-curvature="0"
     class="st0"
     d="m 278.45451,136 -1.2,1.4 c -0.6,-1 -1.5,-1.4 -2.5,-1.4 -2.3,0 -3.5,3 -3.5,6.3 0,3.6 1.2,6.3 3.7,6.3 0.9,0 1.5,-0.2 1.9,-0.5 v -4.8 h -2.1 v -1.7 h 4 v 7.5 c -0.9,0.7 -2.1,1.2 -3.8,1.2 -3.6,0 -5.7,-3.2 -5.7,-8.2 0,-4.7 2.1,-8.2 5.6,-8.2 1.5,0.3 2.7,0.9 3.6,2.1 z"
     id="path4651"
     style="fill:#000000;fill-opacity:1" /><path
     inkscape:connector-curvature="0"
     style="fill:#000000;fill-opacity:1"
     id="path4587"
     d="m 293.3,150.1 -0.9,-3.7 h -4.6 l -0.9,3.7 h -2 l 4,-15.6 h 2.6 l 3.8,15.6 z m -3.1,-13.7 v 0 l -2.1,8.5 h 4 z"
     class="st0" /><path
     inkscape:connector-curvature="0"
     style="fill:#000000;fill-opacity:1"
     id="path4589"
     d="m 314.3,150.1 v -12.9 h -0.1 l -3.5,12.9 H 309 l -3.5,-12.9 h -0.1 v 12.9 h -1.9 v -15.6 h 3 l 3.3,12.4 h 0.1 l 3.2,-12.4 h 3.1 v 15.6 z"
     class="st0" /><path
     inkscape:connector-curvature="0"
     style="fill:#000000;fill-opacity:1"
     id="path4591"
     d="m 326.1,150.1 v -15.6 h 6.6 v 1.7 H 328 v 4.9 h 4.3 v 1.6 H 328 v 5.4 h 4.8 v 1.7 h -6.7 z"
     class="st0" /><path
     inkscape:connector-curvature="0"
     style="fill:#000000;fill-opacity:1"
     id="path4599"
     d="m 353.33225,150.1 v -15.6 h 6.6 v 1.7 h -4.7 v 4.9 h 4.3 v 1.6 h -4.3 v 5.4 h 4.8 v 1.7 h -6.7 z"
     class="st0" /><g
     aria-label="N"
     style="font-style:normal;font-weight:normal;font-size:40px;line-height:1.25;font-family:sans-serif;letter-spacing:0px;word-spacing:0px;fill:#000000;fill-opacity:1;stroke:none"
     id="text4638"><path
       d="m 378.66966,149.89555 h -2.55209 l -7.35416,-13.875 v 13.875 h -1.92709 v -15.51041 h 3.19792 l 6.70833,12.66666 v -12.66666 h 1.92709 z"
       style="font-size:21.3333px"
       id="path4687" /></g><g
     aria-label="I"
     transform="scale(1.1868053,0.84259819)"
     style="font-style:normal;font-variant:normal;font-weight:normal;font-stretch:normal;font-size:47.4722px;line-height:1.25;font-family:'Agency FB';-inkscape-font-specification:'Agency FB';letter-spacing:0px;word-spacing:0px;fill:#000000;fill-opacity:1;stroke:none;stroke-width:1.18681"
     id="text4645"><path
       d="m 340.4434,178.12114 h -1.7184 v -19.3474 h 1.7184 z"
       style="font-style:normal;font-variant:normal;font-weight:normal;font-stretch:normal;font-size:25.3185px;font-family:'Agency FB';-inkscape-font-specification:'Agency FB';stroke-width:1.18681"
       id="path4684" /></g><g
     aria-label="N"
     style="font-style:normal;font-weight:normal;font-size:41.0169px;line-height:1.25;font-family:sans-serif;letter-spacing:0px;word-spacing:0px;fill:#000000;fill-opacity:1;stroke:none;stroke-width:1.02542"
     id="text4649"><path
       d="m 423.20104,149.89555 h -2.61696 l -7.54113,-14.22774 v 14.22774 h -1.97608 v -15.90474 h 3.27922 l 6.87888,12.9887 v -12.9887 h 1.97607 z"
       style="font-size:21.8757px;stroke-width:1.02542"
       id="path4681" /></g><path
     inkscape:connector-curvature="0"
     class="st0"
     d="m 427.27977,150.1 v -16.19251 h 6.85068 v 1.76457 h -4.87852 v 5.08611 h 4.46332 v 1.66077 h -4.46332 v 5.6051 h 4.98232 v 1.76457 h -6.95448 z"
     id="path4657"
     style="fill:#000000;fill-opacity:1;stroke-width:1.03798" /><g
     id="TGA"
     style="fill:#000000;fill-opacity:1">
		
		<g
   id="g10610"
   transform="translate(-6.3091616)"><path
     style="fill:#000000;fill-opacity:1"
     d="m 319.8,74 h 24.9 l 16.6,-16.7 h -41.5 z"
     id="polygon4610" /><path
     class="st0"
     d="m 333.6,95.9 c -4.2,1.9 -8.9,2.8 -13.8,2.8 -9.1,0 -17.1,-3.1 -23.6,-9.6 -6.4,-6.4 -9.6,-14.5 -9.6,-23.6 0,-9.1 3.1,-16.9 9.6,-23.5 6.6,-6.6 14.5,-9.8 23.6,-9.8 9.3,0 16.9,3.2 23.5,9.8 l 12,-11.7 c -4.6,-4.6 -10,-8.3 -15.9,-10.9 -6.1,-2.6 -12.6,-3.8 -19.4,-3.8 -13.8,0 -25.6,4.8 -35.1,14.7 -9.9,9.8 -14.7,21.4 -14.7,35.1 0,13.8 4.9,25.5 14.7,35.1 9.8,9.8 21.3,14.7 35.1,14.7 4.3,0 8.5,-0.5 12.5,-1.6 4.1,-1 7.9,-2.5 11.4,-4.4 3.6,-2 6.8,-4.3 9.9,-7 3.1,-2.7 5.7,-5.8 8,-9.3 l -16.6,-5.4 c -3.7,3.7 -7.4,6.4 -11.6,8.4 z"
     id="path4612"
     style="fill:#000000;fill-opacity:1" /></g>
		
		
		<path
   style="fill:#000000;fill-opacity:1"
   d="m 173.5,15.8 v 16.7 h 33.3 v 82.9 0 0 h 16.7 V 32.5 h 33.1 V 15.8 Z"
   id="polygon4618" />
	<g
   aria-label="E"
   id="text10554"
   style="font-size:124.52px;line-height:1.25;letter-spacing:0px;word-spacing:0px;stroke-width:3.11299"><path
     d="m 363.52173,114.06512 v 1.36972 h 66.36916 V 98.749158 h -49.808 z m 0,-98.24628 16.56116,16.68568 h 49.808 V 15.81884 Z m 0,41.589679 v 16.561159 h 16.56116 49.808 V 57.408519 h -49.808 z"
     style="font-family:Anurati;-inkscape-font-specification:Anurati"
     id="path7392" /></g></g><g
     id="icon_1_"
     style="fill:#000000;fill-opacity:1">
		<path
   class="st0"
   d="M 108,59.8 133.4,34.3 C 121.3,22.8 104.9,15.8 87,15.8 c -28.9,0 -53.7,18.3 -63.1,44 z"
   id="path4621"
   style="fill:#000000;fill-opacity:1" />
		<path
   class="st0"
   d="m 103.2,148.5 v -72 H 20.1 c -0.2,2.2 -0.4,4.3 -0.4,6.7 0,37.2 30.2,67.4 67.4,67.4 5.6,-0.1 11,-0.8 16.1,-2.1 z"
   id="path4623"
   style="fill:#000000;fill-opacity:1" />
		<path
   class="st0"
   d="M 119.9,71.8 V 142 c 20.6,-11.5 34.6,-33.5 34.6,-58.8 0,-13.1 -3.7,-25.3 -10.3,-35.7 z"
   id="path4625"
   style="fill:#000000;fill-opacity:1" />
	</g></g>
</g>
</svg>
